<?xml version="1.0" encoding="utf-8"?>
<!-- Generator: Adobe Illustrator 14.0.0, SVG Export Plug-In . SVG Version: 6.00 Build 43363)  -->
<!DOCTYPE svg PUBLIC "-//W3C//DTD SVG 1.1//EN" "http://www.w3.org/Graphics/SVG/1.1/DTD/svg11.dtd">
<svg version="1.1" id="use_Case_-_copie" xmlns="http://www.w3.org/2000/svg" xmlns:xlink="http://www.w3.org/1999/xlink" x="0px"
	 y="0px" width="512px" height="512px" viewBox="0 0 512 512" style="enable-background:new 0 0 512 512;" xml:space="preserve">
<style type="text/css">
<![CDATA[
	.st0{fill:#7ECCFD;}
	.st1{fill:#1275B3;}
	.st2{fill:#51BBFD;}
	.st3{fill:#FFFFFF;}
	.st4{fill:#009EFF;}
	.st5{fill:#3BB3FC;}
	.st6{fill:#0D5886;}
	.st7{fill:#4191C2;}
]]>
</style>
<g>
	<path class="st2" d="M199.165,473.179c-6.724-1.768-13.343-3.823-19.826-6.19l-0.082,0.223l-5.105,14.097l-4.884,13.479
		c21.021,7.616,43.127,12.395,65.473,14.28c-3.989-4.124-7.944-8.272-11.952-12.28C214.906,488.925,207.035,481.052,199.165,473.179
		z"/>
	<path class="st5" d="M509.274,235.489c-0.168-2.105-0.354-4.212-0.575-6.319c-5.384-51.221-25.978-99.058-59.553-138.34
		l-22.422,19.166c22.16,25.886,38.082,56.415,46.638,89.379C485.341,211.405,497.299,223.456,509.274,235.489z"/>
	<path class="st2" d="M419.39,116.266l7.335-6.27c-0.399-0.465-0.804-0.925-1.205-1.388c-6.186-7.107-12.832-13.863-19.94-20.206
		c-41.439-36.976-94.717-57.244-150.022-57.069l0.031,9.672c0.138,0,0.274-0.005,0.412-0.005
		C321.393,41,379.957,70.201,419.39,116.266z"/>
	<path class="st2" d="M85.479,125.058l-7.631-5.857c-8.228,10.717-15.395,22.045-21.493,33.839l8.522,4.405
		C70.786,146.011,77.694,135.181,85.479,125.058z"/>
	<path class="st0" d="M46.779,337.561c-7.127-18.259-11.975-37.743-14.12-58.156c-1.049-9.988-1.418-19.957-1.147-29.857
		c0.915-33.74,9.402-66.632,24.844-96.507l-26.217-13.551C7.385,183.511-1.891,232.942,3.312,282.44
		c3.606,34.306,13.893,66.934,30.576,96.976c17.281,31.121,40.559,57.844,69.188,79.422l8.613-11.428l9.053-12.011l0.167-0.221
		C88.132,410.457,62.131,376.875,46.779,337.561z"/>
</g>
<g>
	<path class="st2" d="M224.995,499.363c-4.251-4.153-8.464-8.368-12.618-12.618c-4.69-4.569-9.363-9.165-14.024-13.776
		c-6.445-1.72-12.792-3.709-19.014-5.98l-0.082,0.223l-5.105,14.097l-4.884,13.479c21.477,7.781,44.084,12.599,66.924,14.396
		C232.076,506.555,228.556,503.007,224.995,499.363z"/>
	<path class="st5" d="M481.36,207.675c9.353,9.106,18.657,18.302,27.896,27.561c-0.164-2.021-0.344-4.042-0.557-6.065
		c-5.384-51.221-25.978-99.058-59.553-138.34l-22.422,19.166c22.195,25.928,38.133,56.514,46.679,89.54
		C476.06,202.246,478.722,204.953,481.36,207.675z"/>
	<path class="st2" d="M419.39,116.266l7.335-6.27c-0.399-0.465-0.804-0.925-1.205-1.388c-6.186-7.107-12.832-13.863-19.94-20.206
		c-41.439-36.976-94.717-57.244-150.022-57.069l0.031,9.672c0.138,0,0.274-0.005,0.412-0.005
		C321.393,41,379.957,70.201,419.39,116.266z"/>
	<path class="st2" d="M85.479,125.058l-7.631-5.857c-8.228,10.717-15.395,22.045-21.493,33.839l8.522,4.405
		C70.786,146.011,77.694,135.181,85.479,125.058z"/>
	<path class="st0" d="M46.779,337.561c-7.127-18.259-11.975-37.743-14.12-58.156c-1.049-9.988-1.418-19.957-1.147-29.857
		c0.915-33.74,9.402-66.632,24.844-96.507l-26.217-13.551C7.385,183.511-1.891,232.942,3.312,282.44
		c3.606,34.306,13.893,66.934,30.576,96.976c17.281,31.121,40.559,57.844,69.188,79.422l8.613-11.428l9.053-12.011l0.167-0.221
		C88.132,410.457,62.131,376.875,46.779,337.561z"/>
	<path class="st4" d="M161.898,436.266c-17.051-16.563-33.901-33.463-50.49-50.489c-9.219-9.007-18.656-17.324-18.656-31.278
		c0-6.61,0-13.221,0-19.832c0-41.916,0-83.833,0-125.749c9.592,4.187,19.184,8.374,28.776,12.56
		c-1.007-1.029-2.012-2.212-3.03-3.178c-0.902-0.855-2.212-2.673-3.281-3.139c-0.855-0.374-6.311-5.505-6.311-6.311
		c0-0.806-5.454-5.937-6.31-6.311c-0.856-0.374-6.311-5.504-6.311-6.311c0-0.786-2.612-2.388-3.029-3.171
		c-1.323-2.484-0.505-7.596-0.505-10.695c0-6.508,0-13.016,0-19.524c0-5.311-0.102-10.479,1.817-15.562
		c3.259-8.637,10.753-15.305,19.718-17.517c3.74-0.922,7.504-0.824,11.312-0.824c12.14,0,24.279,0,36.419,0
		c8.655,0,17.311,0,25.966,0c0.025,0-0.215-26.017,0.467-29.449c1.842-9.267,9.328-16.752,18.595-18.595
		c2.915-0.58,5.9-0.454,8.855-0.454c11.004,0,22.008,0,33.012,0c12.878,0,25.756,0,38.635,0c9.232,0,19.105-1.17,26.968,4.748
		c5.037,3.791,9.5,9.029,13.887,13.559c4.262,4.14,8.481,8.36,12.622,12.622c4.262,4.14,8.474,8.363,12.619,12.619
		c1.007,0.976,3.866,4.951,5.205,4.951c1.704,0,3.408,0,5.112,0c6.51,0,13.02,0,19.529,0c5.47,0,10.979-0.324,16.259,1.414
		c7.676,2.526,13.02,8.607,18.504,14.219c4.252,4.153,8.473,8.364,12.62,12.62c14.312,13.937,28.531,28.065,42.529,42.347
		c-8.546-33.026-24.483-63.612-46.679-89.54l-7.335,6.27C379.957,70.201,321.393,41,256,41c-0.138,0-0.274,0.005-0.412,0.005
		c-69.292,0.13-130.881,33.044-170.108,84.053c-7.785,10.123-14.694,20.953-20.602,32.387l-8.522-4.405
		c-15.442,29.875-23.929,62.767-24.844,96.507c-0.271,9.9,0.098,19.869,1.147,29.857c2.145,20.413,6.993,39.897,14.12,58.156
		c15.352,39.314,41.353,72.896,74.13,97.618c17.705,13.354,37.382,24.123,58.431,31.81c6.222,2.271,12.569,4.261,19.014,5.98
		C186.092,460.842,173.932,448.588,161.898,436.266z"/>
	<path class="st7" d="M282.766,508.622c51.224-5.386,99.061-25.98,138.338-59.559c22.761-19.457,41.547-42.49,55.915-67.848
		l-25.504-14.434l-0.22-0.124c-15.335,26.956-36.13,50.581-61.035,69.226c-31.316,23.443-69.125,39.017-110.776,43.396
		c-28.025,2.945-55.399,0.559-81.13-6.311c4.661,4.611,9.333,9.207,14.024,13.776c4.154,4.25,8.367,8.465,12.618,12.618
		c3.561,3.644,7.081,7.191,11.196,9.819C251.703,510.403,267.32,510.244,282.766,508.622z"/>
	<path class="st1" d="M481.36,207.675c-2.639-2.722-5.301-5.429-7.957-8.139c2.778,10.741,4.78,21.738,5.955,32.918
		c5.061,48.148-5.562,94.396-27.739,133.643c-0.106,0.19-0.217,0.374-0.324,0.562l0.22,0.124l25.504,14.434
		c24.814-43.788,36.404-94.542,32.237-145.98C500.018,225.977,490.713,216.781,481.36,207.675z"/>
	<path class="st6" d="M479.358,232.454c-1.175-11.181-3.177-22.178-5.955-32.918c-13.998-14.282-28.218-28.41-42.529-42.347
		c-4.147-4.256-8.368-8.467-12.62-12.62c-5.484-5.612-10.828-11.693-18.504-14.219c-5.279-1.738-10.789-1.414-16.259-1.414
		c-6.51,0-13.02,0-19.529,0c-1.704,0-3.408,0-5.112,0c-1.339,0-4.198-3.975-5.205-4.951c-4.146-4.256-8.357-8.479-12.619-12.619
		c-4.141-4.262-8.36-8.481-12.622-12.622c-4.387-4.529-8.85-9.768-13.887-13.559c-7.862-5.917-17.735-4.748-26.968-4.748
		c-12.879,0-25.757,0-38.635,0c-11.004,0-22.008,0-33.012,0c-2.955,0-5.94-0.126-8.855,0.454
		c-9.267,1.842-16.752,9.328-18.595,18.595c-0.683,3.433-0.442,29.449-0.467,29.449c-8.656,0-17.311,0-25.966,0
		c-12.14,0-24.279,0-36.419,0c-3.808,0-7.573-0.099-11.312,0.824c-8.965,2.211-16.459,8.88-19.718,17.517
		c-1.918,5.083-1.817,10.251-1.817,15.562c0,6.508,0,13.016,0,19.524c0,3.099-0.818,8.211,0.505,10.695
		c0.417,0.784,3.029,2.385,3.029,3.171c0,0.806,5.455,5.937,6.311,6.311c0.856,0.374,6.31,5.504,6.31,6.311
		c0,0.806,5.455,5.937,6.311,6.311c1.069,0.466,2.379,2.284,3.281,3.139c1.018,0.966,2.023,2.149,3.03,3.178
		c-9.592-4.187-19.184-8.374-28.776-12.56c0,41.917,0,83.833,0,125.749c0,6.611,0,13.222,0,19.832
		c0,13.954,9.437,22.271,18.656,31.278c16.589,17.026,33.439,33.926,50.49,50.489c12.034,12.322,24.194,24.576,36.455,36.703
		c25.731,6.869,53.105,9.256,81.13,6.311c41.651-4.379,79.46-19.952,110.776-43.396c24.905-18.645,45.7-42.27,61.035-69.226
		c0.107-0.188,0.218-0.371,0.324-0.562C473.796,326.851,484.419,280.603,479.358,232.454z"/>
	<g>
		<path class="st3" d="M390.892,128.936h-66.899v-24.824c0-13.054-10.619-23.673-23.674-23.673h-88.647
			c-13.054,0-23.673,10.62-23.673,23.673v24.824h-66.899c-15.655,0-28.347,12.691-28.347,28.347v35.555l49.861,21.763
			c7.518,0.031,42.283,0.049,82.634,0.055v-17.568c0-9.58,7.793-17.374,17.373-17.374h26.749c9.58,0,17.374,7.794,17.374,17.374
			v17.567c40.937-0.006,76.628-0.025,84.812-0.057l47.684-21.411v-35.905C419.238,141.627,406.547,128.936,390.892,128.936z
			 M206.998,104.111c0-2.577,2.097-4.673,4.673-4.673h88.647c2.577,0,4.674,2.097,4.674,4.673v24.824h-97.994V104.111z"/>
		<polygon class="st3" points="267.743,203.667 267.743,198.714 244.247,198.714 244.247,203.667 244.247,214.657 244.247,244.708 
			267.743,244.708 267.743,214.657 		"/>
		<path class="st3" d="M373.234,229.326c-3.37,0.037-41.812,0.059-86.491,0.065v16.942c0,9.58-7.794,17.374-17.374,17.374H242.62
			c-9.58,0-17.373-7.794-17.373-17.374v-16.943c-44.585-0.006-82.393-0.028-84.339-0.065l-1.464-0.028l-46.692-20.38v146.475
			c0,15.655,12.691,28.346,28.347,28.346h269.793c15.655,0,28.347-12.69,28.347-28.346V209.343l-44.468,19.966L373.234,229.326z"/>
	</g>
</g>
</svg>
